<svg width="40" height="41" viewBox="0 0 40 41" fill="none" xmlns="http://www.w3.org/2000/svg">
<g id="credit-card">
<g id="Group 18080">
<g id="Group 18079">
<path id="Rectangle 8959" d="M28.4 27.1016H32.3V28.4014H28.4V27.1016Z" fill="#FCA21B"/>
<path id="Rectangle 8960" d="M23.3 27.1016H27.1V28.4014H23.3V27.1016Z" fill="#FCA21B"/>
<path id="Rectangle 8961" d="M18.1 27.1016H22V28.4014H18.1V27.1016Z" fill="#FCA21B"/>
<path id="Path 89942" fill-rule="evenodd" clip-rule="evenodd" d="M39.3 15.6011C39.3 16.1011 39.1 16.701 38.7 17.001L35.5001 20.4009V35.8008C35.5001 36.9008 34.7 37.8008 33.6 37.8008H18.8L16.8 39.8008C16.5 40.2008 16 40.4009 15.5 40.4009C15 40.4009 14.5 40.2008 14.1 39.8008L12.2 37.8008H2.60004C1.60004 37.8008 0.700012 36.9008 0.700012 35.8008V17.001C0.700012 15.901 1.60004 15.001 2.60004 15.001H9.70001L23.2 0.900879C23.6 0.500879 24.1 0.300781 24.6 0.300781C25.1 0.300781 25.6 0.500879 26 0.900879L38.7 14.2012C39.1 14.6012 39.3 15.1011 39.3 15.6011ZM27.8 4.70117L17.9 15.001H23.4L30.5001 7.50098L27.8 4.70117ZM11.6 15.001H16.1L26.9 3.80078L25.1 1.90088C24.8 1.60088 24.4 1.60088 24.2 1.90088L11.6 15.001ZM17 37.8008H14.1L15.1 38.9009C15.2334 39.0342 15.4 39.1011 15.6 39.1011C15.7334 39.1011 15.8667 39.0342 16 38.9009L17 37.8008ZM34.3 26.4009H2V35.8008C2 36.1008 2.30001 36.4009 2.70001 36.4009H33.6C34 36.4009 34.3 36.1008 34.3 35.8008V26.4009ZM34.3 21.001H2V25.001H34.3V21.001ZM34.3 17.001C34.3 16.601 34 16.3008 33.6 16.3008H2.70001C2.30001 16.3008 2 16.601 2 17.001V19.7012H34.3V17.001ZM38.1 15.6011C38.1 15.4011 38.0333 15.2344 37.9 15.1011L31.5001 8.50098L25.3 15.001H33.6C34.7 15.001 35.6 15.901 35.6 17.001V18.501L37.9 16.1011C38.0333 15.9677 38.1 15.8011 38.1 15.6011Z" fill="#FCA21B"/>
<path id="Path 89943" fill-rule="evenodd" clip-rule="evenodd" d="M3.20003 34.9023C2.30003 33.8023 2.40002 32.1025 3.50002 31.1025C4.60002 30.1025 6.20006 30.2023 7.10006 31.4023C7.50006 30.9023 8.10003 30.6024 8.70003 30.5024C8.83337 30.4358 8.96673 30.4023 9.10006 30.4023C10.5001 30.4023 11.7 31.6025 11.7 33.1025C11.7 34.0025 11.2 34.8022 10.5 35.3022C9.50002 36.1022 8.00006 35.9023 7.10006 34.9023C7.03339 34.969 6.96671 35.0693 6.90005 35.2026C5.80005 36.1026 4.20003 36.0023 3.20003 34.9023ZM7.80001 33.1025C7.80001 33.8025 8.40006 34.5024 9.10006 34.5024C9.40006 34.5024 9.80002 34.3024 10 34.0024H10.1001V33.9023C10.3001 33.7023 10.4 33.4359 10.4 33.1025C10.4 32.4025 9.80006 31.8022 9.10006 31.8022H8.90005C8.30005 31.9022 7.80001 32.4025 7.80001 33.1025ZM3.90005 33.1025C3.90005 33.9025 4.50003 34.5024 5.20003 34.5024C5.90003 34.5024 6.50002 33.9025 6.50002 33.1025C6.50002 32.4025 5.90003 31.8022 5.20003 31.8022C4.50003 31.8022 3.90005 32.4025 3.90005 33.1025Z" fill="#FCA21B"/>
</g>
</g>
</g>
</svg>
