<svg width="34" height="33" viewBox="0 0 34 33" fill="none" xmlns="http://www.w3.org/2000/svg">
<g id="phone-call">
<g id="Group 16895">
<path id="Path 76295" fill-rule="evenodd" clip-rule="evenodd" d="M30.3 23.9028C31 24.6028 31.3999 25.4031 31.3999 26.2031C31.3999 27.1031 30.9999 27.903 30.3999 28.603C30.0666 28.8697 29.7667 29.1696 29.5 29.5029C29 29.9029 28.6 30.3031 28.2 30.7031C27.1333 31.8365 25.8 32.4028 24.2 32.4028H23.8C21.4 32.2028 19.3 31.403 17.7 30.603C13.5 28.603 9.89995 25.9027 6.89995 22.3027C4.39995 19.4027 2.70002 16.6031 1.60002 13.7031C1.10002 12.5031 0.499996 10.6031 0.699996 8.70312C0.766662 7.43646 1.26666 6.3696 2.2 5.50293L4.50004 3.20312C5.20004 2.50313 6.09995 2.20312 6.89995 2.20312C7.69995 2.20312 8.5 2.50313 9.2 3.20312C9.66666 3.60312 10.1 4.00283 10.5 4.40283C10.7 4.6695 10.9333 4.90303 11.2 5.10303L13.1 6.90283C14.5 8.30283 14.5 10.203 13.1 11.603L12.5 12.2031C11.9667 12.7365 11.4333 13.2365 10.8999 13.7031C11.2999 14.6031 11.9 15.503 12.7 16.603C14.5 18.803 16.3999 20.4031 18.3999 21.7031C18.5999 21.8365 18.8334 21.9363 19.1 22.0029C19.3 22.1363 19.4667 22.2361 19.6 22.3027L21.8 20.2031C22.5 19.5031 23.3 19.103 24.2 19.103C25.1 19.103 25.9 19.5031 26.5 20.2031L30.3 23.9028ZM29 25.2031L25.2 21.4028C25 21.2028 24.6 20.9028 24.2 20.9028C23.8 20.9028 23.4 21.2028 23.1 21.4028L20.8 23.8027C20.7 23.9027 20.3 24.2031 19.7 24.2031C19.5 24.2031 19.2667 24.1363 19 24.0029C18.7334 23.8696 18.5 23.7364 18.3 23.603C17.9666 23.4697 17.6666 23.3365 17.3999 23.2031C15.1999 21.8031 13.2 20.0031 11.3 17.7031C10.2 16.4031 9.50004 15.303 9.00004 14.103C8.90004 13.703 8.79995 13.1029 9.39995 12.5029C9.99995 12.0029 10.6 11.4028 11.1 10.9028L11.7 10.3027C12.5 9.60273 12.5 8.90312 11.7 8.20312L9.79997 6.30273L9.2 5.70312C8.8 5.23646 8.36661 4.83626 7.89995 4.50293V4.40283C7.69995 4.20283 7.29995 4.00293 6.89995 4.00293C6.56661 4.00293 6.23328 4.1696 5.89995 4.50293L3.50004 6.80273C2.90004 7.33607 2.56671 8.00273 2.50004 8.80273C2.40004 10.0027 2.69997 11.3029 3.29997 13.0029C4.39997 15.8029 5.89997 18.303 8.29997 21.103C11.2 24.503 14.6 27.1029 18.5 29.0029C20 29.6029 21.8999 30.4029 23.8999 30.5029H24.2C25.3 30.5029 26.1 30.2029 26.8 29.5029C27.2666 28.9696 27.7333 28.503 28.2 28.103L29 27.3027C29.7334 26.5694 29.7334 25.8698 29 25.2031Z" fill="#0A9A73"/>
<path id="Path 76296" d="M18.2999 7.90137C20.1999 8.20137 21.8 9.10137 23.1 10.4014C24.4 11.7014 25.3 13.3015 25.6 15.0015C25.7 15.5015 26.1 15.8013 26.5 15.8013H26.6999C27.1999 15.7013 27.4999 15.2017 27.3999 14.7017C27.0999 12.6017 25.9999 10.6016 24.3999 9.10156C22.8999 7.50156 20.8999 6.50156 18.6999 6.10156C18.1999 6.10156 17.7 6.40137 17.6 6.90137C17.5 7.40137 17.7999 7.90137 18.2999 7.90137Z" fill="#0A9A73"/>
<path id="Path 76297" d="M33.3999 14.5008C32.7999 10.9008 31.0999 7.70096 28.3999 5.20096C25.7999 2.60096 22.4999 0.900573 18.8999 0.300573C18.3999 0.200573 17.8999 0.600866 17.8999 1.10087C17.7999 1.60087 18.1 2.00087 18.6 2.10087C21.8 2.70087 24.8 4.20067 27.1 6.40067C29.5 8.70067 31 11.6006 31.5 14.8006C31.6 15.2006 32 15.5008 32.5 15.5008H32.6C33.1 15.4008 33.4999 15.0008 33.3999 14.5008Z" fill="#0A9A73"/>
</g>
</g>
</svg>
