<svg width="40" height="39" viewBox="0 0 40 39" fill="none" xmlns="http://www.w3.org/2000/svg">
<g id="return-box">
<g id="Group 16898">
<path id="Path 76300" fill-rule="evenodd" clip-rule="evenodd" d="M39.3 29.6001C39.3 34.6001 35.2 38.7002 30.2 38.7002C26 38.7002 22.4 35.7002 21.5 31.7002H3.20001C2.80001 31.7002 2.5 31.4 2.5 31V18.1001H1.5C1.1 18.1001 0.700012 17.7999 0.700012 17.3999V12.8999C0.700012 12.7666 0.733321 12.6668 0.799988 12.6001L4.79999 0.5C4.89999 0.2 5.2 0 5.5 0H30.6C30.9 0 31.2 0.2 31.3 0.5L35.3 12.6001C35.3667 12.6668 35.4 12.7666 35.4 12.8999V17.3999C35.4 17.7999 35 18.1001 34.6 18.1001H33.6V21.2002C36.9 22.6002 39.3 25.8001 39.3 29.6001ZM33.9 16.6001V13.6001H22.5V16.6001H33.9ZM15.1 21.1001L15.2 21.2998H15.3L17.8 20.2002C18 20.1335 18.2 20.1335 18.4 20.2002L21 21.2998H21.1V18.1001H15.1V21.1001ZM21.1 16.6001V13.6001H15.1V16.6001H21.1ZM16 1.5L15.2 12.1001H21.1L20.3 1.5H16ZM30.1 1.5H21.8L22.6 12.1001H33.6L30.1 1.5ZM2.60004 12.1001H13.7L14.5 1.5H6.20001L2.60004 12.1001ZM13.6 16.6001V13.6001H2.29999V16.6001H13.6ZM21.2 30.2002V29.6001C21.2 24.6001 25.3 20.6001 30.3 20.6001C30.9 20.6001 31.5 20.6665 32.1 20.7998V18.1001H22.6V21.1001C22.6 21.7001 22.3 22.2 21.8 22.5C21.5333 22.7 21.2667 22.7998 21 22.7998C20.8 22.7998 20.6 22.7669 20.4 22.7002L18.1 21.7002L15.8 22.7002C15.3 22.9002 14.7 22.8 14.3 22.5C13.8 22.2 13.6 21.7001 13.6 21.1001V18.1001H4V27.2002H7.40002C7.80002 27.2002 8.20001 27.5 8.20001 28C8.20001 28.4 7.80002 28.7002 7.40002 28.7002H4V30.2002H21.2ZM37.8 29.6001C37.8 25.5001 34.4 22.1001 30.2 22.1001C26.1 22.1001 22.7 25.5001 22.7 29.6001C22.7 33.8001 26.1 37.2002 30.2 37.2002C34.4 37.2002 37.8 33.8001 37.8 29.6001Z" fill="#F3272E"/>
<path id="Path 76301" d="M10.8 27.1992C10.4 27.1992 10 27.499 10 27.999C10 28.399 10.4 28.6992 10.8 28.6992C11.2 28.6992 11.5 28.399 11.5 27.999C11.5 27.499 11.2 27.1992 10.8 27.1992Z" fill="#F3272E"/>
<path id="Path 76302" d="M32.2 26.5995H28.6L28.8 26.3993C29.1 26.0993 29.1 25.5992 28.8 25.2992C28.5 24.9992 28.1 24.9992 27.8 25.2992L26.3 26.7992C26 27.0992 26 27.5993 26.3 27.8993L27.8 29.3993C27.9333 29.5326 28.1 29.5995 28.3 29.5995C28.5 29.5995 28.6667 29.5326 28.8 29.3993C29.1 29.0993 29.1 28.5992 28.8 28.2992L28.6 28.0995H32.2C33 28.0995 33.7 28.7995 33.7 29.5995C33.7 30.4995 33 31.0995 32.2 31.0995H26C25.6 31.0995 25.3 31.4993 25.3 31.8993C25.3 32.2993 25.6 32.5995 26 32.5995H32.2C33.8 32.5995 35.2 31.2995 35.2 29.5995C35.2 27.9995 33.8 26.5995 32.2 26.5995Z" fill="#F3272E"/>
</g>
</g>
</svg>
