<svg width="46" height="34" viewBox="0 0 46 34" fill="none" xmlns="http://www.w3.org/2000/svg">
<g id="truck">
<g id="Group 14778">
<g id="Group 14777">
<path id="Path 75099" fill-rule="evenodd" clip-rule="evenodd" d="M15.5 29.2017C15.5 31.7017 13.5 33.8013 11.1 33.8013C8.60001 33.8013 6.60001 31.7017 6.60001 29.2017C6.60001 26.7017 8.60001 24.6016 11.1 24.6016C13.5 24.6016 15.5 26.7017 15.5 29.2017ZM14 29.2017C14 27.5017 12.7 26.2017 11.1 26.2017C9.40001 26.2017 8.10001 27.5017 8.10001 29.2017C8.10001 30.9017 9.40001 32.3013 11.1 32.3013C12.7 32.3013 14 30.9017 14 29.2017Z" fill="#12A2D8"/>
</g>
</g>
<g id="Group 14780">
<g id="Group 14779">
<path id="Path 75100" fill-rule="evenodd" clip-rule="evenodd" d="M40.9 29.2017C40.9 31.7017 38.9 33.8013 36.5 33.8013C34 33.8013 32 31.7017 32 29.2017C32 26.7017 34 24.6016 36.5 24.6016C38.9 24.6016 40.9 26.7017 40.9 29.2017ZM39.4 29.2017C39.4 27.5017 38.1 26.2017 36.5 26.2017C34.8 26.2017 33.5 27.5017 33.5 29.2017C33.5 30.9017 34.8 32.3013 36.5 32.3013C38.1 32.3013 39.4 30.9017 39.4 29.2017Z" fill="#12A2D8"/>
</g>
</g>
<g id="Group 14782">
<g id="Group 14781">
<path id="Path 75101" d="M45.3 20.4009L38.6 9.70117C38.4 9.50117 38.2 9.30078 37.9 9.30078H29.7C29.3 9.30078 29 9.70107 29 10.1011V29.2012C29 29.6012 29.3 30.001 29.7 30.001H32.7V28.4009H30.5V10.9009H37.5L43.9 21.001V28.4009H40.2V30.001H44.7C45.1 30.001 45.4 29.6012 45.4 29.2012V20.8008C45.4 20.6674 45.3667 20.5342 45.3 20.4009Z" fill="#12A2D8"/>
</g>
</g>
<g id="Group 14784">
<g id="Group 14783">
<path id="Path 75102" d="M33.5 19.3022V13.9023H39.4V12.4023H32.7C32.3 12.4023 32 12.7025 32 13.1025V20.0024C32 20.5024 32.3 20.8022 32.7 20.8022H43.9V19.3022H33.5Z" fill="#12A2D8"/>
</g>
</g>
<g id="Group 14786">
<g id="Group 14785">
<path id="Path 75103" d="M29.7 4.00391H1.30002C0.900018 4.00391 0.600006 4.3041 0.600006 4.7041V29.2041C0.600006 29.6041 0.900018 30.0039 1.30002 30.0039H7.30002V28.4038H2.10001V5.50391H29V28.4038H14.8V30.0039H29.7C30.1 30.0039 30.5 29.6041 30.5 29.2041V4.7041C30.5 4.3041 30.1 4.00391 29.7 4.00391Z" fill="#12A2D8"/>
</g>
</g>
<g id="Group 14788">
<g id="Group 14787">
<path id="Rectangle 8673" d="M1.30002 25.4023H5.80002V26.9023H1.30002V25.4023Z" fill="#12A2D8"/>
</g>
</g>
<g id="Group 14790">
<g id="Group 14789">
<path id="Rectangle 8674" d="M16.3 25.4023H29V26.9023H16.3V25.4023Z" fill="#12A2D8"/>
</g>
</g>
<g id="Group 14792">
<g id="Group 14791">
<path id="Rectangle 8675" d="M41.7 25.4023H44.7V26.9023H41.7V25.4023Z" fill="#12A2D8"/>
</g>
</g>
<g id="Group 14794">
<g id="Group 14793">
<path id="Rectangle 8676" d="M3.60001 7.00391H29.7V8.604H3.60001V7.00391Z" fill="#12A2D8"/>
</g>
</g>
<g id="Group 14796">
<g id="Group 14795">
<path id="Rectangle 8677" d="M10.3 28.4023H11.8V30.0024H10.3V28.4023Z" fill="#12A2D8"/>
</g>
</g>
<g id="Group 14798">
<g id="Group 14797">
<path id="Rectangle 8678" d="M35.7 28.4023H37.2V30.0024H35.7V28.4023Z" fill="#12A2D8"/>
</g>
</g>
<g id="Group 14800">
<g id="Group 14799">
<path id="Rectangle 8679" d="M3.60001 0.902344H14V2.40234H3.60001V0.902344Z" fill="#12A2D8"/>
</g>
</g>
<g id="Group 14802">
<g id="Group 14801">
<path id="Rectangle 8680" d="M0.600006 0.902344H2.10001V2.40234H0.600006V0.902344Z" fill="#12A2D8"/>
</g>
</g>
</g>
</svg>
